<svg xmlns="http://www.w3.org/2000/svg" width="102.804" height="105.141" viewBox="0 0 102.804 105.141">
  <g id="Group_91" data-name="Group 91" transform="translate(-1428 -5561.93)">
    <g id="Group_1" data-name="Group 1" transform="translate(1428 5561.93)">
      <path id="Path_1" data-name="Path 1" d="M8.782,32.3c-.591.386-1.295.84-1.908,1.2l.023.023c.659-.182,1.386-.363,2.09-.5l2.408-.5.386.659-1.613,1.772c-.477.522-1.022,1.068-1.522,1.522V36.5c.613-.341,1.363-.75,2.021-1.068l1.931-1,.477.795L8.237,37.616,7.578,36.5l1.5-1.7c.454-.477.909-.954,1.363-1.363l-.023-.023a19,19,0,0,1-1.885.477l-2.226.454-.636-1.09,4.475-2.975.477.818Z" transform="translate(-0.355 35.748)" fill="#fff"/>
      <path id="Path_2" data-name="Path 2" d="M6.556,28.617a2.54,2.54,0,0,1,3.589,1.295,2.47,2.47,0,0,1-1.59,3.316,2.562,2.562,0,0,1-3.566-1.272A2.5,2.5,0,0,1,6.556,28.617Zm1.613,3.657c1-.409,1.59-1.249,1.249-2.112-.363-.863-1.363-1.022-2.408-.613-.931.386-1.613,1.2-1.249,2.112S7.146,32.705,8.168,32.274Z" transform="translate(-1.468 33.277)" fill="#fff"/>
      <path id="Path_3" data-name="Path 3" d="M4.668,30.18l3.021-.818c1.022-.273,1.363-.818,1.2-1.454-.182-.681-.772-.954-1.772-.681L4.1,28.045l-.25-.954L6.8,26.3c1.59-.432,2.521.2,2.862,1.431.318,1.2-.136,2.158-1.772,2.612l-2.975.795Z" transform="translate(-2.669 30.511)" fill="#fff"/>
      <path id="Path_4" data-name="Path 4" d="M9.348,27.895l-5.315.772-.159-1.113,2.09-1.7a14.656,14.656,0,0,1,1.658-1.158v-.023c-.7.159-1.386.3-2.2.409l-1.863.273-.136-.909,5.315-.772.136,1L6.736,26.4c-.545.432-1.136.863-1.7,1.227l.023.023c.681-.136,1.386-.25,2.249-.386l1.908-.273Z" transform="translate(-3.216 27.344)" fill="#fff"/>
      <path id="Path_5" data-name="Path 5" d="M4.239,24.281,4.284,25.8l-.818.023L3.33,21.783l.818-.023L4.193,23.3l4.543-.159.045.977Z" transform="translate(-3.33 24.916)" fill="#fff"/>
      <path id="Path_6" data-name="Path 6" d="M7.62,22.65A2.718,2.718,0,0,0,8.1,21.4c.068-.636-.2-1-.636-1.045-.409-.045-.681.2-.977.863-.409.84-.931,1.363-1.7,1.295a1.657,1.657,0,0,1-1.34-2.044,2.76,2.76,0,0,1,.409-1.249l.772.318a2.364,2.364,0,0,0-.363,1.045c-.068.613.25.931.545.954.409.045.636-.25.977-.931.454-.886.954-1.295,1.726-1.227.863.091,1.545.818,1.408,2.2a3.011,3.011,0,0,1-.477,1.408Z" transform="translate(-3.213 21.687)" fill="#fff"/>
      <path id="Path_7" data-name="Path 7" d="M7.141,17.894,6.754,19.87l1.545.318.432-2.226.795.159L8.89,21.3,3.62,20.256l.613-3.066.795.159-.409,2.09,1.363.273.386-1.976Z" transform="translate(-2.961 19.106)" fill="#fff"/>
      <path id="Path_8" data-name="Path 8" d="M7.778,16.267,7.21,18.2l1.522.454.636-2.158.772.227-.954,3.112L4.03,18.288l.886-3,.772.227L5.1,17.584l1.317.409.591-1.931Z" transform="translate(-2.44 16.691)" fill="#fff"/>
      <path id="Path_9" data-name="Path 9" d="M9.569,18.989,4.64,16.9l.432-1.022,2.657-.386a15.632,15.632,0,0,1,2.021-.136v-.023c-.681-.227-1.34-.477-2.09-.795L5.935,13.81l.363-.84,4.929,2.09-.386.931-2.726.363a16.488,16.488,0,0,1-2.09.159v.023c.659.227,1.317.5,2.112.84l1.772.75Z" transform="translate(-1.665 13.741)" fill="#fff"/>
      <path id="Path_10" data-name="Path 10" d="M9.183,14.573l1.09,1.158-.5.886L5.98,12.46l.613-1.09,5.519,1.158-.522.909L10.023,13.1Zm.114-1.7-1.363-.3c-.341-.068-.7-.182-1-.273v.023c.227.227.522.477.75.727l.931,1.022Z" transform="translate(0.039 11.707)" fill="#fff"/>
      <path id="Path_11" data-name="Path 11" d="M13.859,11.016a3.508,3.508,0,0,1-.7,1.2,2.536,2.536,0,0,1-3.839.341A2.7,2.7,0,0,1,9,8.54a3,3,0,0,1,1.022-.84l.454.681a2.512,2.512,0,0,0-.84.659,1.794,1.794,0,0,0,.3,2.726,1.767,1.767,0,0,0,2.7-.182,3.184,3.184,0,0,0,.545-.954Z" transform="translate(2.926 7.041)" fill="#fff"/>
      <path id="Path_12" data-name="Path 12" d="M14.1,7.278a2.555,2.555,0,0,1,.091,3.839,2.493,2.493,0,0,1-3.68-.273,2.6,2.6,0,0,1-.091-3.816A2.471,2.471,0,0,1,14.1,7.278ZM11.24,10.094c.75.795,1.749,1.045,2.43.386s.477-1.658-.3-2.476c-.7-.727-1.726-1.09-2.43-.409S10.468,9.3,11.24,10.094Z" transform="translate(4.682 5.283)" fill="#fff"/>
      <path id="Path_13" data-name="Path 13" d="M11.25,5.891l.772-.591,2.771,3.611,1.749-1.34.5.659-2.521,1.931Z" transform="translate(6.739 3.99)" fill="#fff"/>
      <path id="Path_14" data-name="Path 14" d="M12.74,4.732l.818-.522,2.476,3.816,1.84-1.2.454.681L15.647,9.23Z" transform="translate(8.633 2.604)" fill="#fff"/>
      <path id="Path_15" data-name="Path 15" d="M18.373,5.506l-1.794.954.75,1.386,2-1.068.386.7L16.851,9,14.33,4.256,17.078,2.78l.386.7-1.885,1,.659,1.227,1.794-.954Z" transform="translate(10.655 0.786)" fill="#fff"/>
      <path id="Path_16" data-name="Path 16" d="M21.711,6.407a5.359,5.359,0,0,1-1.476.931,2.907,2.907,0,0,1-2.2.136A2.647,2.647,0,0,1,16.577,5.93a2.71,2.71,0,0,1,1.681-3.7,3.986,3.986,0,0,1,1.408-.318l.091.818a3.139,3.139,0,0,0-1.2.25A1.784,1.784,0,0,0,17.486,5.5a1.776,1.776,0,0,0,2.453,1.09,1.813,1.813,0,0,0,.636-.386l-.522-1.227-.84.363-.3-.727,1.749-.727Z" transform="translate(13.2 -0.32)" fill="#fff"/>
      <path id="Path_17" data-name="Path 17" d="M22.178,4.117l-1.931.591.454,1.5,2.158-.659.227.772-3.112.931L18.43,2.119l3-.909.227.772L19.611,2.6l.409,1.317,1.931-.591Z" transform="translate(15.867 -1.21)" fill="#fff"/>
      <path id="Path_18" data-name="Path 18" d="M39.739,6.639A2.537,2.537,0,0,1,36.173,8a2.462,2.462,0,0,1-.954-3.543,2.546,2.546,0,0,1,3.543-1.34A2.438,2.438,0,0,1,39.739,6.639ZM36.151,4.89c-.5.977-.409,2,.432,2.408.84.432,1.726-.114,2.226-1.113.454-.909.454-1.976-.432-2.43C37.513,3.345,36.65,3.913,36.151,4.89Z" transform="translate(36.737 0.834)" fill="#fff"/>
      <path id="Path_19" data-name="Path 19" d="M39.647,3.79l2.589,1.681-.432.681L40.033,4.994l-.795,1.249L40.9,7.311l-.432.681L38.807,6.924,37.558,8.81l-.818-.522Z" transform="translate(39.146 2.07)" fill="#fff"/>
      <path id="Path_20" data-name="Path 20" d="M40.712,8.484l-1.34.863L38.6,8.688l4.793-3,.954.818-2.135,5.224-.795-.681.613-1.476Zm1.635.432.545-1.272c.136-.318.3-.659.432-.954h0c-.273.182-.568.432-.84.613l-1.181.75Z" transform="translate(41.51 4.486)" fill="#fff"/>
      <path id="Path_21" data-name="Path 21" d="M44.186,6.94a12.449,12.449,0,0,1,1.113,1,2.672,2.672,0,0,1,.84,1.5,1.35,1.35,0,0,1-.454,1.068,1.436,1.436,0,0,1-1.635.227l-.023.023a1.372,1.372,0,0,1-.227,1.249A11.233,11.233,0,0,0,43,13.345l-.7-.727a10.494,10.494,0,0,1,.659-1.136c.409-.591.386-.931.023-1.34l-.341-.363L41.051,11.3l-.681-.7ZM43.141,9.279l.409.432a.935.935,0,0,0,1.386.159c.432-.409.341-.886-.114-1.363a2.634,2.634,0,0,0-.454-.409Z" transform="translate(43.761 6.075)" fill="#fff"/>
      <path id="Path_22" data-name="Path 22" d="M45.569,10.064l-.954-1.2.636-.5,2.5,3.18-.636.5-.954-1.2-3.566,2.816-.613-.772Z" transform="translate(45.807 7.88)" fill="#fff"/>
      <path id="Path_23" data-name="Path 23" d="M43.59,12.182a2.738,2.738,0,0,0,.432,1.272c.341.522.772.659,1.158.409.341-.227.386-.568.227-1.295-.227-.909-.136-1.658.522-2.067a1.678,1.678,0,0,1,2.339.75,2.64,2.64,0,0,1,.477,1.227l-.795.227a2.366,2.366,0,0,0-.363-1.045c-.341-.522-.772-.568-1.022-.386-.341.227-.341.591-.182,1.34.2.977.068,1.613-.568,2.044-.727.477-1.7.341-2.453-.84a3.2,3.2,0,0,1-.522-1.386Z" transform="translate(46.901 10.304)" fill="#fff"/>
      <path id="Path_24" data-name="Path 24" d="M46.021,14.418l-1.567.227L44,13.737l5.61-.727.522,1.136L46,18.007l-.454-.954,1.181-1.09Zm1.317,1.068,1.022-.954c.25-.227.545-.477.795-.681v-.023c-.318.068-.681.136-1.022.2l-1.386.182Z" transform="translate(48.376 13.792)" fill="#fff"/>
      <path id="Path_25" data-name="Path 25" d="M44.97,16.381,50.081,14.7l.341,1.068-1.749,2.044a14.174,14.174,0,0,1-1.431,1.431v.023c.659-.3,1.317-.522,2.09-.795L51.1,17.88l.3.863-5.111,1.681-.318-.954L47.764,17.4a18.281,18.281,0,0,1,1.454-1.5l-.023-.023c-.636.25-1.317.477-2.158.772l-1.817.613Z" transform="translate(49.609 15.94)" fill="#fff"/>
      <path id="Path_26" data-name="Path 26" d="M50.846,17.19a9.367,9.367,0,0,1,.409,1.5,3.454,3.454,0,0,1-.182,2.271,2.435,2.435,0,0,1-1.772,1.2,2.78,2.78,0,0,1-2.249-.409,3.681,3.681,0,0,1-1.181-2.249,10.339,10.339,0,0,1-.182-1.317Zm-4.27,1.84a3,3,0,0,0,.091.545,1.826,1.826,0,0,0,2.408,1.59,1.7,1.7,0,0,0,1.454-2.226,4.98,4.98,0,0,0-.182-.636Z" transform="translate(50.524 19.106)" fill="#fff"/>
      <path id="Path_27" data-name="Path 27" d="M47.219,20.721a2.832,2.832,0,0,0-.273,1.317c.023.636.341.954.772.954.409-.023.636-.3.84-1,.273-.909.727-1.476,1.5-1.522.886-.045,1.567.659,1.635,1.817a2.736,2.736,0,0,1-.2,1.295l-.795-.2a2.35,2.35,0,0,0,.2-1.09c-.023-.613-.386-.886-.681-.863-.409.023-.591.341-.84,1.068-.3.954-.75,1.431-1.522,1.454-.863.045-1.635-.568-1.7-1.953a3.359,3.359,0,0,1,.273-1.476Z" transform="translate(51.108 23.275)" fill="#fff"/>
      <path id="Path_28" data-name="Path 28" d="M46.281,26.31a3.505,3.505,0,0,1-.159-1.408,2.523,2.523,0,0,1,2.862-2.567,2.714,2.714,0,0,1,2.657,3.044,3.358,3.358,0,0,1-.318,1.295l-.772-.273a2.4,2.4,0,0,0,.273-1.045,1.784,1.784,0,0,0-1.863-2,1.756,1.756,0,0,0-2.044,1.749,2.657,2.657,0,0,0,.136,1.09Z" transform="translate(51.068 25.636)" fill="#fff"/>
      <path id="Path_29" data-name="Path 29" d="M51.325,26.094l-5.315-.727.136-.977,5.315.727Z" transform="translate(50.931 28.26)" fill="#fff"/>
      <path id="Path_30" data-name="Path 30" d="M48.035,28.71l.409-1.976L46.9,26.416l-.454,2.2-.795-.159.659-3.18,5.27,1.09-.636,3.066-.795-.159.432-2.09-1.363-.273-.409,1.976Z" transform="translate(50.473 29.391)" fill="#fff"/>
      <path id="Path_31" data-name="Path 31" d="M46.317,26.98l5.088,1.681-.341,1.068-2.612.591a12.885,12.885,0,0,1-2,.3v.023c.7.159,1.363.363,2.135.613l1.772.591-.3.863L45,31l.318-.954L48,29.456c.659-.136,1.408-.273,2.067-.341v-.023c-.681-.182-1.34-.386-2.18-.659l-1.817-.591Z" transform="translate(49.647 31.553)" fill="#fff"/>
      <path id="Path_32" data-name="Path 32" d="M44.19,32.413a3.643,3.643,0,0,1,.363-1.363,2.545,2.545,0,0,1,3.611-1.363A2.706,2.706,0,0,1,49.55,33.48a3.019,3.019,0,0,1-.772,1.09l-.613-.522a2.823,2.823,0,0,0,.636-.863,1.8,1.8,0,0,0-1-2.544,1.764,1.764,0,0,0-2.544.886,2.97,2.97,0,0,0-.273,1.045Z" transform="translate(48.617 34.615)" fill="#fff"/>
      <path id="Path_33" data-name="Path 33" d="M45.423,34.763l1.022-1.749-1.363-.795-1.158,1.953-.7-.409,1.658-2.794L49.512,33.7l-1.59,2.68-.7-.409,1.09-1.84-1.2-.7-1.022,1.749Z" transform="translate(47.384 36.625)" fill="#fff"/>
    </g>
    <path id="Path_35" data-name="Path 35" d="M45.089,58.243c-.477,0-.954,0-1.454-.023C24.919,57.357,12.086,39.936,11.95,39.754l.931-.659c.114.182,12.651,17.171,30.822,17.989,11.607.5,22.986-5.542,33.888-18.034l.863.75C67.757,52.042,56.536,58.243,45.089,58.243Z" transform="translate(1435.629 5608.828)" fill="#fff"/>
    <path id="Subtraction_3" data-name="Subtraction 3" d="M21.857,25.393H9.494L.568,17.762,0,9.744H5.951V0H24.6V11.447H22.3v2.2H1.408v3.884l8.268,6.882,12.515.143-.334.832ZM1.2,10.584v1.068H18.125V10.584ZM7.586,2V9.676H23.054V2Z" transform="translate(1446.035 5605.244)" fill="#fff"/>
    <g id="Group_5" data-name="Group 5" transform="translate(1489.531 5603.37)">
      <path id="Path_37" data-name="Path 37" d="M30.42,38.819s6.042,1.681,7.427-1.681c0,0-4.974-.3-5.042-1.681,0,0,2.294.045,3.384-3.339l5.042.727-.568,3.748s8.608-5.61,1.045-6.7c-.136-.023-.7.409-.863.477a1.88,1.88,0,0,1-1.635.045c-.84-.5-.863-1.794-.84-2.612.023-2.271.25-5.27,1.613-7.2a2.794,2.794,0,0,1,1.181-1.113c2.135-.545,1.431,5.474,1.363,6.292,0,.136-.114,1.476-.114,1.476s10.789.727,2.112,10.425c0,0-.772,3.18.909,3.407,1.681.25-1.386,5.27-10.13,2.385,0,0,5.27-.613,5.951-3.248S36.325,44.179,30.42,38.819Z" transform="translate(-30.42 -19.455)" fill="#fff"/>
    </g>
    <g id="Group_6" data-name="Group 6" transform="translate(1501.409 5612.943)">
      <rect id="Rectangle_9" data-name="Rectangle 9" width="1.136" height="20.397" transform="translate(0 1.054) rotate(-68.088)" fill="#fff"/>
    </g>
    <g id="Group_7" data-name="Group 7" transform="translate(1436.858 5567.699)">
      <path id="Path_38" data-name="Path 38" d="M50.386,85.927C26.6,85.927,7.23,67.507,7.23,44.839S26.582,3.75,50.386,3.75,93.541,22.171,93.541,44.839,74.189,85.927,50.386,85.927Zm0-81.019c-23.168,0-42.02,17.921-42.02,39.953s18.852,39.953,42.02,39.953,42.02-17.921,42.02-39.953S73.553,4.908,50.386,4.908Z" transform="translate(-7.23 -3.75)" fill="#fff"/>
    </g>
    <g id="Group_8" data-name="Group 8" transform="translate(1480.173 5568.426)">
      <path id="Path_39" data-name="Path 39" d="M46.174,39.3C46.152,39.117,43.54,21.173,26.3,4.888l.772-.818C44.63,20.628,47.265,38.958,47.31,39.14Z" transform="translate(-26.3 -4.07)" fill="#fff"/>
    </g>
    <g id="Group_9" data-name="Group 9" transform="translate(1500.239 5608.214)">
      <rect id="Rectangle_10" data-name="Rectangle 10" width="1.136" height="22.35" transform="translate(0 1.136) rotate(-89.909)" fill="#fff"/>
    </g>
    <g id="Group_10" data-name="Group 10" transform="translate(1438.766 5597.067)">
      <path id="Path_40" data-name="Path 40" d="M24.719,23.153A26.507,26.507,0,0,1,8.07,17.543l.75-.863a26.625,26.625,0,0,0,21.4,4.793l.2,1.113A28.669,28.669,0,0,1,24.719,23.153Z" transform="translate(-8.07 -16.68)" fill="#fff"/>
    </g>
    <g id="Group_11" data-name="Group 11" transform="translate(1446.988 5582.417)">
      <path id="Path_41" data-name="Path 41" d="M47.873,19.406c-19.42,0-35.933-8.018-36.183-8.154l.5-1.022c.363.182,37,17.966,64.983.023l.613.954C68.224,17.362,57.685,19.406,47.873,19.406Z" transform="translate(-11.69 -10.23)" fill="#fff"/>
    </g>
    <g id="Group_12" data-name="Group 12" transform="translate(1459.14 5572.832)">
      <path id="Path_42" data-name="Path 42" d="M40.935,12.574A58.888,58.888,0,0,1,17.04,7.032l.522-1.022c.227.114,23.372,11.72,41.725.613l.591.977A36.225,36.225,0,0,1,40.935,12.574Z" transform="translate(-17.04 -6.01)" fill="#fff"/>
    </g>
    <g id="Group_13" data-name="Group 13" transform="translate(1479.451 5568.357)">
      <rect id="Rectangle_11" data-name="Rectangle 11" width="47.13" height="1.136" transform="translate(0 47.13) rotate(-89.72)" fill="#fff"/>
    </g>
    <g id="Group_14" data-name="Group 14" transform="translate(1480.014 5567.813)">
      <path id="Path_43" data-name="Path 43" d="M58.71,71.236,50.874,67.42l.25-.522c.091-.182,9.608-19.4,2.657-37.409C49.6,18.609,40.335,10.319,26.23,4.868L26.639,3.8c14.4,5.588,23.895,14.082,28.21,25.28,6.451,16.808-1,34.57-2.476,37.8l6.814,3.316Z" transform="translate(-26.23 -3.8)" fill="#fff"/>
    </g>
    <g id="Group_15" data-name="Group 15" transform="translate(1459.822 5567.767)">
      <path id="Path_44" data-name="Path 44" d="M18.453,41.462l-1.113-.2C23.586,7.755,36.828,3.916,37.4,3.78l.3,1.09C37.555,4.893,24.54,8.777,18.453,41.462Z" transform="translate(-17.34 -3.78)" fill="#fff"/>
    </g>
    <g id="Group_16" data-name="Group 16" transform="translate(1479.764 5568.04)">
      <path id="Path_45" data-name="Path 45" d="M37.454,40.764h-.591l-.068-.477C33.434,15.734,26.188,4.65,26.12,4.536l.954-.636c.3.454,7.336,11.243,10.789,35.728,2.862-.045,17.83-.591,29.187-7.314l.568.977C55.261,40.6,38.84,40.764,37.454,40.764Z" transform="translate(-26.12 -3.9)" fill="#fff"/>
    </g>
    <g id="Group_17" data-name="Group 17" transform="translate(1448.634 5567.813)">
      <path id="Path_46" data-name="Path 46" d="M12.609,51.385c-.909-8.245.2-29.391,29.777-47.585l.591.977C13.972,22.629,12.859,43.231,13.722,51.248Z" transform="translate(-12.414 -3.8)" fill="#fff"/>
    </g>
    <g id="Group_18" data-name="Group 18" transform="translate(1448.101 5629.843)">
      <path id="Path_47" data-name="Path 47" d="M12.884,37.72l-.7-.909,7.132-5.7.7.886Z" transform="translate(-12.18 -31.11)" fill="#fff"/>
    </g>
    <g id="Group_19" data-name="Group 19" transform="translate(1468.517 5567.926)">
      <path id="Path_48" data-name="Path 48" d="M21.172,41.259C20.945,17.637,32.347,3.986,32.46,3.85l.863.727c-.114.136-11.243,13.492-11.016,36.659Z" transform="translate(-21.169 -3.85)" fill="#fff"/>
    </g>
    <path id="Path_51" data-name="Path 51" d="M38.158,59.024H36.387a1.158,1.158,0,0,1-.7-.25c-.727-.636-6.428-3.861-15.854-3.861h-.114c-1.635,0-1.885-.386-1.976-.522l-.159-.25.114-.386,7.972-16.081v-.045h-.023c0-.136,1-13.038,11.516-13.038,9.971,0,10.948,10.925,11.039,12.2l7.518,17.081a.91.91,0,0,1-.091.863,1.519,1.519,0,0,1-1.249.636c-.341-.023-.795-.068-1.34-.114-3.657-.341-11.311-1-13.969,3.316A1.222,1.222,0,0,1,38.158,59.024Zm-18.33-5.27c9.744,0,15.65,3.316,16.6,4.134l1.726-.023c2.975-4.883,11.084-4.157,14.968-3.793.522.045.954.091,1.295.091a.362.362,0,0,0,.182-.068L47.062,36.878c-.023-.454-.477-11.2-9.9-11.2-9.267,0-10.312,11.039-10.38,11.947a1.222,1.222,0,0,1-.091.5L18.966,53.709c.227.023.545.023.818.045Zm34.842.522Z" transform="translate(1442.787 5590.444)" fill="#fff"/>
    <g id="Group_23" data-name="Group 23" transform="translate(1452.462 5644.788)">
      <path id="Path_52" data-name="Path 52" d="M41.447,51.591H41.4c-9.767-.023-18.966-4.429-27.3-13.106l.818-.795C23.049,46.139,31.953,50.432,41.4,50.432h.045c16.036,0,28.3-12.47,28.415-12.583l.818.795C70.566,38.78,57.982,51.591,41.447,51.591Z" transform="translate(-14.1 -37.69)" fill="#fff"/>
    </g>
    <g id="Group_24" data-name="Group 24" transform="translate(1479.355 5634.726)">
      <rect id="Rectangle_13" data-name="Rectangle 13" width="1.136" height="14.15" transform="translate(0)" fill="#fff"/>
    </g>
    <path id="Path_54" data-name="Path 54" d="M15.658,47.391,14.045,43.3l-8,2.839,1-1.454c.182-.273,4.77-6.791,10.812-7.791a9.316,9.316,0,0,1,7.246,1.908l.772.568-.863.409c-.045.023-5.519,2.567-8.722,6.814ZM14.7,41.849,15.976,45.1a27.234,27.234,0,0,1,7.654-5.928,7.954,7.954,0,0,0-5.588-1.158c-3.839.636-7.155,3.839-8.858,5.792Z" transform="translate(1428.128 5605.938)" fill="#fff"/>
    <path id="Path_56" data-name="Path 56" d="M48.9,47.3l-.636-.795c-3.316-4.111-8.972-6.428-9.04-6.428l-.863-.341.681-.613a8.957,8.957,0,0,1,7-2.408c6.133.636,11.152,7.359,11.357,7.632l1.045,1.408-8.086-2.589Zm-8.381-7.9a26.828,26.828,0,0,1,8,5.656l1.181-3.293,5.565,1.794c-1.817-1.976-5.383-5.292-9.313-5.7A7.588,7.588,0,0,0,40.518,39.4Z" transform="translate(1469.205 5605.802)" fill="#fff"/>
    <g id="Group_40" data-name="Group 40" transform="translate(1466.045 5658.03)">
      <g id="Group_28" data-name="Group 28">
        <path id="Path_57" data-name="Path 57" d="M21.148,43.52a6,6,0,0,1,.84.25,1.372,1.372,0,0,1,.795.545.856.856,0,0,1,.091.75.868.868,0,0,1-.477.568,1.509,1.509,0,0,1-1.09-.023,1.648,1.648,0,0,1-.273-.114c-.136.363-.25.727-.386,1.09-.2-.068-.386-.136-.568-.2C20.443,45.405,20.807,44.474,21.148,43.52Zm.068,1.545a1.648,1.648,0,0,0,.273.114c.432.159.75.045.863-.3.114-.318-.068-.568-.454-.7a2.7,2.7,0,0,0-.318-.091C21.443,44.406,21.329,44.747,21.216,45.065Z" transform="translate(-20.08 -43.52)" fill="#fff"/>
      </g>
      <g id="Group_29" data-name="Group 29" transform="translate(2.09 0.954)">
        <path id="Path_58" data-name="Path 58" d="M22.136,45.984c-.182.25-.341.5-.522.75-.2-.068-.409-.114-.613-.182.659-.863,1.295-1.726,1.885-2.612.227.068.477.136.7.2.068,1.068.159,2.158.273,3.225-.2-.045-.432-.114-.636-.159-.023-.3-.045-.613-.068-.909A8.815,8.815,0,0,0,22.136,45.984Zm1.022-.159c-.023-.273-.023-.522-.045-.795V44.44h0c-.091.159-.2.341-.3.5-.159.227-.3.432-.454.659A8.122,8.122,0,0,0,23.158,45.825Z" transform="translate(-21 -43.94)" fill="#fff"/>
      </g>
      <g id="Group_30" data-name="Group 30" transform="translate(5.338 1.317)">
        <path id="Path_59" data-name="Path 59" d="M23.316,44.759l-.886-.2c.045-.159.068-.3.114-.454.772.182,1.545.363,2.317.5a2.679,2.679,0,0,1-.091.454c-.3-.045-.591-.114-.886-.182-.182.84-.363,1.681-.522,2.544-.2-.045-.409-.091-.591-.136C22.93,46.462,23.134,45.622,23.316,44.759Z" transform="translate(-22.43 -44.1)" fill="#fff"/>
      </g>
      <g id="Group_31" data-name="Group 31" transform="translate(7.564 1.862)">
        <path id="Path_60" data-name="Path 60" d="M24.523,44.454c-.068.409-.136.818-.2,1.2.454.068.909.136,1.34.182.045-.409.091-.818.159-1.227l.568.068c-.114,1.022-.227,2.022-.341,3.044l-.613-.068c.045-.454.114-.886.159-1.34-.454-.068-.909-.114-1.363-.2-.068.454-.136.886-.2,1.34-.2-.023-.409-.068-.613-.091.182-1,.363-2,.522-3.021A3.337,3.337,0,0,0,24.523,44.454Z" transform="translate(-23.41 -44.34)" fill="#fff"/>
      </g>
      <g id="Group_32" data-name="Group 32" transform="translate(10.902 2.317)">
        <path id="Path_61" data-name="Path 61" d="M25.743,44.585c-.091,1.022-.159,2.044-.25,3.044-.2-.023-.409-.023-.613-.045.091-1.022.182-2.021.3-3.044A4.426,4.426,0,0,1,25.743,44.585Z" transform="translate(-24.88 -44.54)" fill="#fff"/>
      </g>
      <g id="Group_33" data-name="Group 33" transform="translate(12.243 2.408)">
        <path id="Path_62" data-name="Path 62" d="M25.652,44.6c.2-.023.522-.023.863-.023a1.492,1.492,0,0,1,.954.273.819.819,0,0,1,.273.613.809.809,0,0,1-.591.75v.023a.834.834,0,0,1,.454.591,4.748,4.748,0,0,0,.25.863h-.636a4.8,4.8,0,0,1-.2-.727c-.091-.409-.227-.545-.568-.545a1.3,1.3,0,0,1-.3-.023c-.023.409-.045.84-.068,1.249-.2,0-.409-.023-.613-.023C25.515,46.624,25.584,45.625,25.652,44.6Zm.5,1.386a1.719,1.719,0,0,1,.341.023c.409.023.659-.182.659-.477,0-.341-.227-.5-.613-.5h-.363C26.174,45.352,26.151,45.67,26.151,45.988Z" transform="translate(-25.47 -44.58)" fill="#fff"/>
      </g>
      <g id="Group_34" data-name="Group 34" transform="translate(15.036 2.476)">
        <path id="Path_63" data-name="Path 63" d="M27.268,44.61l.068,3.066h-.613c0-1.022,0-2.044-.023-3.066Z" transform="translate(-26.7 -44.61)" fill="#fff"/>
      </g>
      <g id="Group_35" data-name="Group 35" transform="translate(16.263 2.381)">
        <path id="Path_64" data-name="Path 64" d="M27.24,44.686a5.346,5.346,0,0,1,.863-.114,1.547,1.547,0,0,1,.931.182.835.835,0,0,1,.363.636.959.959,0,0,1-.2.727,1.549,1.549,0,0,1-1,.409h-.3l.068,1.158c-.2,0-.409.023-.613.023C27.308,46.685,27.285,45.685,27.24,44.686Zm.636,1.386a.629.629,0,0,0,.3,0c.432-.023.7-.25.659-.613-.023-.341-.273-.5-.681-.477a1.106,1.106,0,0,0-.341.045C27.853,45.39,27.853,45.731,27.876,46.071Z" transform="translate(-27.24 -44.568)" fill="#fff"/>
      </g>
      <g id="Group_36" data-name="Group 36" transform="translate(18.852 2.14)">
        <path id="Path_65" data-name="Path 65" d="M28.38,44.639a4.554,4.554,0,0,1,.863-.159,1.723,1.723,0,0,1,.954.114.861.861,0,0,1,.409.613.948.948,0,0,1-.159.727,1.469,1.469,0,0,1-.977.454,1.4,1.4,0,0,1-.3.023c.045.386.091.772.136,1.136l-.613.068C28.584,46.638,28.471,45.638,28.38,44.639Zm.727,1.34a1.63,1.63,0,0,0,.3-.023c.432-.045.681-.3.636-.659-.045-.341-.318-.477-.7-.432a1.39,1.39,0,0,0-.318.068A7.771,7.771,0,0,0,29.107,45.979Z" transform="translate(-28.38 -44.462)" fill="#fff"/>
      </g>
      <g id="Group_37" data-name="Group 37" transform="translate(21.305 1.704)">
        <path id="Path_66" data-name="Path 66" d="M30.232,46.587c-.045.3-.091.613-.136.909-.2.045-.409.068-.636.114.2-1.068.363-2.135.522-3.2.25-.045.477-.091.727-.136.545.931,1.09,1.862,1.681,2.771-.2.045-.432.091-.636.136-.159-.273-.318-.522-.477-.795A9.4,9.4,0,0,1,30.232,46.587Zm.84-.591c-.136-.227-.273-.454-.386-.681-.091-.182-.182-.363-.273-.522h0c-.023.182-.023.409-.045.591-.045.273-.068.522-.114.795C30.528,46.11,30.8,46.064,31.073,46Z" transform="translate(-29.46 -44.27)" fill="#fff"/>
      </g>
      <g id="Group_38" data-name="Group 38" transform="translate(23.963 1.249)">
        <path id="Path_67" data-name="Path 67" d="M30.63,44.206l.545-.136c.2.84.432,1.681.636,2.521.454-.114.886-.227,1.317-.363.045.159.091.3.136.454-.636.182-1.295.363-1.931.522C31.107,46.205,30.88,45.206,30.63,44.206Z" transform="translate(-30.63 -44.07)" fill="#fff"/>
      </g>
      <g id="Group_39" data-name="Group 39" transform="translate(26.847 0.318)">
        <path id="Path_68" data-name="Path 68" d="M32.536,46.022c0,.3,0,.613-.023.909a6.267,6.267,0,0,1-.613.182c.045-1.09.091-2.158.091-3.225.227-.068.454-.159.7-.227q.988,1.261,2.044,2.521c-.2.068-.409.159-.636.227-.2-.227-.386-.477-.568-.7C33.195,45.8,32.854,45.909,32.536,46.022Zm.75-.7c-.159-.2-.318-.409-.5-.636-.114-.159-.227-.341-.341-.5h0a5.17,5.17,0,0,1,.045.591v.795A8.124,8.124,0,0,0,33.286,45.318Z" transform="translate(-31.9 -43.66)" fill="#fff"/>
      </g>
    </g>
    <g id="Group_41" data-name="Group 41" transform="translate(1478.492 5626.391)">
      <circle id="Ellipse_1" data-name="Ellipse 1" cx="1.476" cy="1.476" r="1.476" fill="#fff"/>
    </g>
  </g>
</svg>
